<svg id="Capa_1" enable-background="new 0 0 512.006 512.006" height="512" viewBox="0 0 512.006 512.006" width="512" xmlns="http://www.w3.org/2000/svg"><g><g><path d="m27.705 423.439-8.894 33.192-4.061 34.475c-1 3.733 2.416 7.15 6.149 6.149l34.475-4.061 33.192-8.894-23.701-37.843z" fill="#f2fdff"/><path d="m82.071 468.11-71.466 19.149-.804 8.797c-1 3.733 2.416 7.15 6.149 6.149l39.424-9.011 33.192-8.894z" fill="#d3ecf5"/><path d="m18.812 456.632-8.207 30.627 4.145 3.847c-1 3.733 2.416 7.15 6.149 6.149l34.475-4.061z" fill="#677a8f"/><path d="m355.321 95.823-327.616 327.616 25.128 25.128 12.374-1.768-1.767 12.374 18.056 18.057 403.331-403.332z" fill="#f9d065"/><path d="m490.484 21.522c-2.946-2.946-4.804-6.778-8.279-8.691 9.001 16.35 6.583 37.308-7.277 51.168l-403.332 403.331 16.971 16.971 327.616-327.616 68.644-82.787c16.807-16.806 22.463-35.57 5.657-52.376z" fill="#f5b84c"/><path d="m491.898 20.108c-16.806-16.806-44.055-16.806-60.861 0l-38.492 38.492 46.719 60.861 45.563-45.563c16.807-16.806 23.878-36.984 7.071-53.79z" fill="#ed6479"/><path d="m491.898 20.108c-2.946-2.946-6.218-5.364-9.693-7.277 9.001 16.35 6.583 37.308-7.277 51.168l-38.492 38.492 9.899 24.042 45.563-45.563c16.807-16.807 16.807-44.056 0-60.862z" fill="#d65461"/><path d="m374.507 66.071h52.643v76.071h-52.643z" fill="#677a8f" transform="matrix(.707 -.707 .707 .707 43.786 313.921)"/><g fill="#5c6d80"><path d="m399.988 117.588h52.642v24h-52.642z" transform="matrix(.707 -.707 .707 .707 33.231 339.402)"/><path d="m41.232 479.052-30.627 8.207-2.926 10.918c-1 3.733 2.416 7.15 6.149 6.149l41.546-11.132z"/></g></g><path d="m497.204 14.802c-9.544-9.545-22.235-14.802-35.734-14.802s-26.189 5.257-35.734 14.802l-146.054 146.055c-2.929 2.929-2.929 7.678 0 10.606 1.464 1.464 3.384 2.197 5.303 2.197s3.839-.732 5.303-2.197l65.036-65.036 19.824 19.824-317.009 317.01-19.824-19.825 228.86-228.86c2.929-2.929 2.929-7.678 0-10.607s-7.678-2.929-10.606 0l-234.164 234.164c-.92.92-1.606 2.105-1.941 3.362l-20.026 74.739c-1.171 4.372.041 8.893 3.241 12.093 2.397 2.397 5.535 3.679 8.797 3.679 1.093 0 2.2-.144 3.297-.438l74.738-20.026c1.256-.338 2.442-1.022 3.362-1.941l73.644-73.644c2.929-2.929 2.929-7.678 0-10.606-2.929-2.929-7.678-2.929-10.606 0l-68.341 68.341-19.824-19.825 317.009-317.009 19.824 19.824-225.556 225.556c-2.929 2.929-2.929 7.678 0 10.606 1.464 1.464 3.384 2.197 5.303 2.197s3.839-.732 5.303-2.197l278.598-278.598c2.929-2.929 2.929-7.678 0-10.606-2.929-2.929-7.678-2.929-10.607 0l-5.212 5.212-50.255-50.255 33.188-33.188c6.714-6.713 15.638-10.409 25.129-10.409 9.492 0 18.416 3.696 25.127 10.408 6.712 6.712 10.408 15.635 10.408 25.128 0 9.492-3.696 18.416-10.409 25.127l-4.864 4.864c-2.929 2.929-2.928 7.678.001 10.607 2.93 2.929 7.678 2.928 10.607 0l4.863-4.864c9.545-9.545 14.802-22.235 14.802-35.734.001-13.499-5.256-26.19-14.801-35.734zm-423.123 465.614-16.462 4.411-30.439-30.439 4.411-16.463zm-51.384-9.298 18.192 18.191-24.851 6.659zm420.106-351.66-26.617 26.617-50.255-50.255 26.617-26.617z"/></g></svg>